<?xml version="1.0" encoding="UTF-8" standalone="no"?>
<!-- Generator: Adobe Illustrator 17.0.0, SVG Export Plug-In . SVG Version: 6.00 Build 0)  -->

<svg
   xmlns:dc="http://purl.org/dc/elements/1.1/"
   xmlns:cc="http://creativecommons.org/ns#"
   xmlns:rdf="http://www.w3.org/1999/02/22-rdf-syntax-ns#"
   xmlns:svg="http://www.w3.org/2000/svg"
   xmlns="http://www.w3.org/2000/svg"
   xmlns:sodipodi="http://sodipodi.sourceforge.net/DTD/sodipodi-0.dtd"
   xmlns:inkscape="http://www.inkscape.org/namespaces/inkscape"
   version="1.1"
   id="Layer_1"
   x="0px"
   y="0px"
   width="72"
   height="71.306"
   viewBox="0 0 72 71.306"
   enable-background="new 0 0 100 100"
   xml:space="preserve"
   inkscape:version="0.91 r13725"
   sodipodi:docname="fi-social-google-plus.svg"><metadata
     id="metadata4173"><rdf:RDF><cc:Work
         rdf:about=""><dc:format>image/svg+xml</dc:format><dc:type
           rdf:resource="http://purl.org/dc/dcmitype/StillImage" /><dc:title></dc:title></cc:Work></rdf:RDF></metadata><defs
     id="defs4171" /><sodipodi:namedview
     pagecolor="#ffffff"
     bordercolor="#666666"
     borderopacity="1"
     objecttolerance="10"
     gridtolerance="10"
     guidetolerance="10"
     inkscape:pageopacity="0"
     inkscape:pageshadow="2"
     inkscape:window-width="732"
     inkscape:window-height="480"
     id="namedview4169"
     showgrid="false"
     fit-margin-top="0"
     fit-margin-left="0"
     fit-margin-right="0"
     fit-margin-bottom="0"
     inkscape:zoom="2.36"
     inkscape:cx="36"
     inkscape:cy="35.653"
     inkscape:window-x="0"
     inkscape:window-y="0"
     inkscape:window-maximized="0"
     inkscape:current-layer="Layer_1" /><g
     id="g4159"
     transform="translate(-14,-14.347)"><path
       d="m 25.194,51.591 c 1.757,1.379 3.766,2.068 6.026,2.068 2.855,-0.105 5.234,-1.131 7.138,-3.076 0.918,-1.377 1.508,-2.791 1.77,-4.24 0.157,-1.447 0.236,-2.668 0.236,-3.658 0,-4.276 -1.094,-8.588 -3.281,-12.936 -1.026,-2.084 -2.376,-3.781 -4.051,-5.09 -1.71,-1.236 -3.675,-1.891 -5.897,-1.961 -2.939,0.07 -5.384,1.256 -7.331,3.553 -1.644,2.404 -2.43,5.09 -2.358,8.057 0,3.924 1.147,8.008 3.444,12.248 1.111,1.978 2.546,3.658 4.304,5.035 z"
       id="path4161"
       inkscape:connector-curvature="0" /><path
       d="m 31.781,68.05 c -0.782,-1.027 -1.479,-2.127 -2.091,-3.299 -0.714,-1.133 -1.07,-2.5 -1.07,-4.096 0,-0.957 0.135,-1.756 0.407,-2.395 0.238,-0.674 0.459,-1.293 0.663,-1.861 -1.232,0.143 -2.394,0.213 -3.485,0.213 C 21.036,56.55 16.968,55.085 14,52.224 l 0,19.338 c 2.652,-1.215 5.399,-2.068 8.241,-2.561 3.829,-0.564 7.009,-0.881 9.54,-0.951 z"
       id="path4163"
       inkscape:connector-curvature="0" /><path
       d="m 34.74,71.114 c -0.691,-0.072 -1.502,-0.107 -2.435,-0.107 -0.553,-0.07 -1.969,0 -4.248,0.213 -2.246,0.317 -4.542,0.828 -6.89,1.533 -0.553,0.213 -1.33,0.529 -2.331,0.953 -1.002,0.459 -2.021,1.111 -3.056,1.959 -0.662,0.582 -1.254,1.258 -1.78,2.025 l 0,2.949 c 0,2.766 2.248,5.014 5.013,5.014 l 27.326,0 c 0.001,-0.068 0.005,-0.133 0.005,-0.199 0,-2.752 -0.899,-5.15 -2.694,-7.197 -1.9,-1.94 -4.869,-4.32 -8.91,-7.143 z"
       id="path4165"
       inkscape:connector-curvature="0" /><path
       d="m 80.986,14.347 -12.951,0 -18.031,0 -18.316,0 -12.675,0 C 16.247,14.347 14,16.593 14,19.361 l 0,5.43 0,1.293 c 0.316,-0.336 0.643,-0.67 0.985,-1 3.083,-2.539 6.288,-4.195 9.612,-4.973 3.29,-0.67 6.375,-1.004 9.253,-1.004 l 21.692,0 -6.699,3.91 -6.689,0 c 0.681,0.422 1.448,1.041 2.299,1.852 0.817,0.846 1.618,1.887 2.401,3.121 0.749,1.164 1.413,2.539 1.992,4.127 0.476,1.586 0.715,3.44 0.715,5.555 -0.064,3.881 -0.921,6.984 -2.569,9.312 -0.809,1.129 -1.665,2.168 -2.569,3.121 -1.002,0.953 -2.068,1.922 -3.199,2.91 -0.646,0.67 -1.244,1.428 -1.793,2.275 -0.646,0.881 -0.97,1.904 -0.97,3.068 0,1.129 0.332,2.062 0.994,2.803 0.563,0.707 1.11,1.324 1.641,1.854 l 3.68,3.016 c 2.287,1.869 4.292,3.932 6.016,6.189 1.625,2.293 2.47,5.291 2.536,8.994 0,1.531 -0.198,3.01 -0.592,4.439 l 28.25,0 c 2.766,0 5.014,-2.248 5.014,-5.014 l 0,-55.849 0,-5.43 c 0,-2.767 -2.248,-5.013 -5.014,-5.013 z m 3.945,22.117 -11.382,0 0,11.383 -5.514,0 0,-11.383 -11.382,0 0,-5.514 11.382,0 0,-11.381 5.514,0 0,11.381 11.382,0 0,5.514 z"
       id="path4167"
       inkscape:connector-curvature="0" /></g></svg>