<?xml version="1.0" encoding="UTF-8" standalone="no"?>
<!-- Generator: Adobe Illustrator 17.0.0, SVG Export Plug-In . SVG Version: 6.00 Build 0)  -->

<svg
   xmlns:dc="http://purl.org/dc/elements/1.1/"
   xmlns:cc="http://creativecommons.org/ns#"
   xmlns:rdf="http://www.w3.org/1999/02/22-rdf-syntax-ns#"
   xmlns:svg="http://www.w3.org/2000/svg"
   xmlns="http://www.w3.org/2000/svg"
   xmlns:sodipodi="http://sodipodi.sourceforge.net/DTD/sodipodi-0.dtd"
   xmlns:inkscape="http://www.inkscape.org/namespaces/inkscape"
   version="1.1"
   id="Layer_1"
   x="0px"
   y="0px"
   width="72"
   height="72"
   viewBox="0 0 72 72"
   enable-background="new 0 0 100 100"
   xml:space="preserve"
   inkscape:version="0.91 r13725"
   sodipodi:docname="fi-social-facebook.svg"><metadata
     id="metadata6466"><rdf:RDF><cc:Work
         rdf:about=""><dc:format>image/svg+xml</dc:format><dc:type
           rdf:resource="http://purl.org/dc/dcmitype/StillImage" /><dc:title></dc:title></cc:Work></rdf:RDF></metadata><defs
     id="defs6464" /><sodipodi:namedview
     pagecolor="#ffffff"
     bordercolor="#666666"
     borderopacity="1"
     objecttolerance="10"
     gridtolerance="10"
     guidetolerance="10"
     inkscape:pageopacity="0"
     inkscape:pageshadow="2"
     inkscape:window-width="732"
     inkscape:window-height="480"
     id="namedview6462"
     showgrid="false"
     fit-margin-top="0"
     fit-margin-left="0"
     fit-margin-right="0"
     fit-margin-bottom="0"
     inkscape:zoom="2.36"
     inkscape:cx="36"
     inkscape:cy="36"
     inkscape:window-x="0"
     inkscape:window-y="0"
     inkscape:window-maximized="0"
     inkscape:current-layer="Layer_1" /><g
     id="White_1_"
     transform="translate(-14,-14)"><path
       d="M 82.026,14 17.974,14 C 15.779,14 14,15.779 14,17.974 l 0,64.053 C 14,84.221 15.779,86 17.974,86 l 34.483,0 0,-27.882 -9.383,0 0,-10.866 9.383,0 0,-8.014 c 0,-9.3 5.68,-14.363 13.976,-14.363 3.974,0 7.389,0.295 8.385,0.428 l 0,9.719 -5.754,0.003 c -4.512,0 -5.385,2.144 -5.385,5.29 l 0,6.938 10.76,0 -1.401,10.866 -9.359,0 0,27.881 18.348,0 C 84.221,86 86,84.221 86,82.026 L 86,17.974 C 86,15.779 84.221,14 82.026,14 Z"
       id="path6460"
       inkscape:connector-curvature="0" /></g></svg>