<?xml version="1.0" encoding="UTF-8" standalone="no"?>
<!-- Generator: Adobe Illustrator 17.0.0, SVG Export Plug-In . SVG Version: 6.00 Build 0)  -->

<svg
   xmlns:dc="http://purl.org/dc/elements/1.1/"
   xmlns:cc="http://creativecommons.org/ns#"
   xmlns:rdf="http://www.w3.org/1999/02/22-rdf-syntax-ns#"
   xmlns:svg="http://www.w3.org/2000/svg"
   xmlns="http://www.w3.org/2000/svg"
   xmlns:sodipodi="http://sodipodi.sourceforge.net/DTD/sodipodi-0.dtd"
   xmlns:inkscape="http://www.inkscape.org/namespaces/inkscape"
   version="1.1"
   id="Layer_1"
   x="0px"
   y="0px"
   width="72"
   height="72"
   viewBox="0 0 72 72"
   enable-background="new 0 0 100 100"
   xml:space="preserve"
   inkscape:version="0.91 r13725"
   sodipodi:docname="fi-social-youtube.svg"><metadata
     id="metadata25"><rdf:RDF><cc:Work
         rdf:about=""><dc:format>image/svg+xml</dc:format><dc:type
           rdf:resource="http://purl.org/dc/dcmitype/StillImage" /><dc:title></dc:title></cc:Work></rdf:RDF></metadata><defs
     id="defs23" /><sodipodi:namedview
     pagecolor="#ffffff"
     bordercolor="#666666"
     borderopacity="1"
     objecttolerance="10"
     gridtolerance="10"
     guidetolerance="10"
     inkscape:pageopacity="0"
     inkscape:pageshadow="2"
     inkscape:window-width="732"
     inkscape:window-height="480"
     id="namedview21"
     showgrid="false"
     fit-margin-top="0"
     fit-margin-left="0"
     fit-margin-right="0"
     fit-margin-bottom="0"
     inkscape:zoom="2.36"
     inkscape:cx="36"
     inkscape:cy="36"
     inkscape:window-x="0"
     inkscape:window-y="0"
     inkscape:window-maximized="0"
     inkscape:current-layer="Layer_1" /><g
     id="g3"
     transform="translate(-14,-14)"><g
       id="g5"><g
         id="g7"><path
           d="m 45.19,70.391 c -0.696,0.984 -1.355,1.469 -1.985,1.469 -0.42,0 -0.659,-0.246 -0.735,-0.734 -0.03,-0.101 -0.03,-0.484 -0.03,-1.22 l 0,-12.76 -3.138,0 0,13.704 c 0,1.225 0.104,2.051 0.277,2.576 0.313,0.878 1.011,1.289 2.023,1.289 1.154,0 2.34,-0.697 3.587,-2.129 l 0,1.891 3.143,0 0,-17.33 -3.142,0 0,13.244 z"
           id="path9"
           inkscape:connector-curvature="0"
           style="fill:#231f20" /><polygon
           points="35.083,74.477 35.083,54.492 38.845,54.492 38.845,51.218 27.897,51.218 27.897,54.492 31.591,54.492 31.591,74.477 "
           id="polygon11"
           style="fill:#231f20" /><path
           d="m 49.281,39.34 c 1.023,0 1.513,-0.81 1.513,-2.431 l 0,-7.368 c 0,-1.619 -0.49,-2.426 -1.513,-2.426 -1.024,0 -1.515,0.807 -1.515,2.426 l 0,7.368 c 0.001,1.62 0.491,2.431 1.515,2.431 z"
           id="path13"
           inkscape:connector-curvature="0"
           style="fill:#231f20" /><path
           d="m 57.434,56.935 c -1.154,0 -2.23,0.632 -3.243,1.88 l 0,-7.597 -3.141,0 0,23.259 3.141,0 0,-1.682 c 1.048,1.299 2.127,1.92 3.243,1.92 1.251,0 2.091,-0.658 2.511,-1.947 0.209,-0.735 0.316,-1.889 0.316,-3.492 l 0,-6.901 c 0,-1.64 -0.107,-2.786 -0.316,-3.483 -0.421,-1.299 -1.26,-1.957 -2.511,-1.957 z m -0.313,12.587 c 0,1.565 -0.461,2.337 -1.366,2.337 -0.516,0 -1.04,-0.246 -1.565,-0.771 l 0,-10.564 c 0.525,-0.517 1.048,-0.763 1.565,-0.763 0.906,0 1.366,0.802 1.366,2.365 l 0,7.396 z"
           id="path15"
           inkscape:connector-curvature="0"
           style="fill:#231f20" /><path
           d="m 67.435,56.935 c -1.602,0 -2.854,0.591 -3.76,1.778 -0.668,0.875 -0.971,2.229 -0.971,4.08 l 0,6.072 c 0,1.84 0.342,3.209 1.009,4.074 0.907,1.183 2.157,1.775 3.801,1.775 1.64,0 2.927,-0.621 3.797,-1.877 0.38,-0.559 0.628,-1.188 0.733,-1.883 0.028,-0.315 0.067,-1.013 0.067,-2.023 l 0,-0.46 -3.205,0 c 0,1.26 -0.039,1.957 -0.068,2.128 -0.179,0.839 -0.631,1.259 -1.403,1.259 -1.078,0 -1.602,-0.8 -1.602,-2.404 l 0,-3.072 6.279,0 0,-3.59 c 0,-1.852 -0.315,-3.205 -0.972,-4.08 -0.879,-1.187 -2.129,-1.777 -3.705,-1.777 z m 1.537,6.834 -3.139,0 0,-1.603 c 0,-1.602 0.524,-2.404 1.574,-2.404 1.039,0 1.565,0.802 1.565,2.404 l 0,1.603 z"
           id="path17"
           inkscape:connector-curvature="0"
           style="fill:#231f20" /><path
           d="m 79,14 -58,0 c -3.85,0 -7,3.15 -7,7 l 0,58 c 0,3.85 3.15,7 7,7 l 58,0 c 3.85,0 7,-3.15 7,-7 l 0,-58 c 0,-3.85 -3.15,-7 -7,-7 z m -22.42,10.47 3.163,0 0,12.892 c 0,0.746 0,1.133 0.039,1.235 0.07,0.492 0.318,0.743 0.744,0.743 0.634,0 1.301,-0.492 2.004,-1.486 l 0,-13.384 3.174,0 0,17.51 -3.174,0 0,-1.91 c -1.263,1.449 -2.468,2.153 -3.625,2.153 -1.022,0 -1.727,-0.415 -2.044,-1.303 -0.175,-0.529 -0.281,-1.368 -0.281,-2.604 l 0,-13.846 z m -11.987,5.708 c 0,-1.871 0.319,-3.24 0.994,-4.125 0.878,-1.196 2.114,-1.795 3.694,-1.795 1.59,0 2.824,0.599 3.703,1.795 0.664,0.885 0.985,2.254 0.985,4.125 l 0,6.135 c 0,1.86 -0.32,3.24 -0.985,4.119 -0.879,1.193 -2.112,1.792 -3.703,1.792 -1.581,0 -2.817,-0.599 -3.694,-1.792 -0.675,-0.879 -0.994,-2.259 -0.994,-4.119 l 0,-6.135 z m -8.486,-11.696 2.499,9.227 2.399,-9.227 3.558,0 -4.232,13.982 0,9.516 -3.52,0 0,-9.516 c -0.318,-1.688 -1.022,-4.158 -2.15,-7.435 -0.742,-2.18 -1.515,-4.37 -2.256,-6.547 l 3.702,0 z m 38.966,57.036 c -0.634,2.763 -2.896,4.801 -5.616,5.104 -6.444,0.72 -12.965,0.724 -19.457,0.72 -6.493,0.004 -13.014,0 -19.457,-0.72 -2.721,-0.304 -4.979,-2.342 -5.614,-5.104 -0.905,-3.936 -0.905,-8.232 -0.905,-12.282 0,-4.054 0.01,-8.347 0.916,-12.284 0.634,-2.762 2.893,-4.799 5.614,-5.103 6.443,-0.722 12.964,-0.724 19.457,-0.722 6.492,-0.002 13.013,0 19.457,0.722 2.719,0.304 4.98,2.341 5.615,5.103 0.905,3.938 0.9,8.23 0.9,12.284 10e-4,4.05 -0.004,8.346 -0.91,12.282 z"
           id="path19"
           inkscape:connector-curvature="0"
           style="fill:#231f20" /></g></g></g></svg>