<?xml version="1.0" encoding="UTF-8" standalone="no"?>
<!-- Created with Inkscape (http://www.inkscape.org/) -->
<svg id="svg2" xmlns:rdf="http://www.w3.org/1999/02/22-rdf-syntax-ns#" xmlns="http://www.w3.org/2000/svg" height="435.84" width="426.97" version="1.1" xmlns:cc="http://creativecommons.org/ns#" xmlns:dc="http://purl.org/dc/elements/1.1/" viewBox="0 0 426.97004 435.83997">
 <metadata id="metadata7">
  <rdf:RDF>
   <cc:Work rdf:about="">
    <dc:format>image/svg+xml</dc:format>
    <dc:type rdf:resource="http://purl.org/dc/dcmitype/StillImage"/>
    <dc:title/>
   </cc:Work>
  </rdf:RDF>
 </metadata>
 <g id="layer1" transform="translate(-83.094 -192.72)">
  <path id="path4136-9" transform="rotate(-90)" stroke="#000" stroke-width="1.0163" d="m-193.2 286.82a223.09 223.09 0 0 1 -137.72 206.11 223.09 223.09 0 0 1 -243.12 -48.36l157.75-157.75z"/>
  <circle id="path4226" cx="-495.31" transform="rotate(225)" stroke="#000" cy="-91.869" r="49.602" stroke-width=".79707" fill="#fff"/>
  <g id="g4159" fill="#ff2a2a" transform="matrix(.80001 0 0 .80001 245.28 375.2)">
   <path id="path4161" d="m25.194 51.591c1.757 1.379 3.766 2.068 6.026 2.068 2.855-0.105 5.234-1.131 7.138-3.076 0.918-1.377 1.508-2.791 1.77-4.24 0.157-1.447 0.236-2.668 0.236-3.658 0-4.276-1.094-8.588-3.281-12.936-1.026-2.084-2.376-3.781-4.051-5.09-1.71-1.236-3.675-1.891-5.897-1.961-2.939 0.07-5.384 1.256-7.331 3.553-1.644 2.404-2.43 5.09-2.358 8.057 0 3.924 1.147 8.008 3.444 12.248 1.111 1.978 2.546 3.658 4.304 5.035z"/>
   <path id="path4163" d="m31.781 68.05c-0.782-1.027-1.479-2.127-2.091-3.299-0.714-1.133-1.07-2.5-1.07-4.096 0-0.957 0.135-1.756 0.407-2.395 0.238-0.674 0.459-1.293 0.663-1.861-1.232 0.143-2.394 0.213-3.485 0.213-5.169-0.062-9.237-1.527-12.205-4.388v19.338c2.652-1.215 5.399-2.068 8.241-2.561 3.829-0.564 7.009-0.881 9.54-0.951z"/>
   <path id="path4165" d="m34.74 71.114c-0.691-0.072-1.502-0.107-2.435-0.107-0.553-0.07-1.969 0-4.248 0.213-2.246 0.317-4.542 0.828-6.89 1.533-0.553 0.213-1.33 0.529-2.331 0.953-1.002 0.459-2.021 1.111-3.056 1.959-0.662 0.582-1.254 1.258-1.78 2.025v2.949c0 2.766 2.248 5.014 5.013 5.014h27.326c0.001-0.068 0.005-0.133 0.005-0.199 0-2.752-0.899-5.15-2.694-7.197-1.9-1.94-4.869-4.32-8.91-7.143z"/>
   <path id="path4167" d="m80.986 14.347h-12.951-18.031-18.316-12.675c-2.766 0-5.013 2.246-5.013 5.014v5.43 1.293c0.316-0.336 0.643-0.67 0.985-1 3.083-2.539 6.288-4.195 9.612-4.973 3.29-0.67 6.375-1.004 9.253-1.004h21.692l-6.699 3.91h-6.689c0.681 0.422 1.448 1.041 2.299 1.852 0.817 0.846 1.618 1.887 2.401 3.121 0.749 1.164 1.413 2.539 1.992 4.127 0.476 1.586 0.715 3.44 0.715 5.555-0.064 3.881-0.921 6.984-2.569 9.312-0.809 1.129-1.665 2.168-2.569 3.121-1.002 0.953-2.068 1.922-3.199 2.91-0.646 0.67-1.244 1.428-1.793 2.275-0.646 0.881-0.97 1.904-0.97 3.068 0 1.129 0.332 2.062 0.994 2.803 0.563 0.707 1.11 1.324 1.641 1.854l3.68 3.016c2.287 1.869 4.292 3.932 6.016 6.189 1.625 2.293 2.47 5.291 2.536 8.994 0 1.531-0.198 3.01-0.592 4.439h28.25c2.766 0 5.014-2.248 5.014-5.014v-55.849-5.43c0-2.767-2.248-5.013-5.014-5.013zm3.945 22.117h-11.382v11.383h-5.514v-11.383h-11.382v-5.514h11.382v-11.381h5.514v11.381h11.382v5.514z"/>
  </g>
 </g>
</svg>
