<?xml version="1.0" encoding="UTF-8" standalone="no"?>
<!-- Created with Inkscape (http://www.inkscape.org/) -->

<svg
   xmlns:dc="http://purl.org/dc/elements/1.1/"
   xmlns:cc="http://creativecommons.org/ns#"
   xmlns:rdf="http://www.w3.org/1999/02/22-rdf-syntax-ns#"
   xmlns:svg="http://www.w3.org/2000/svg"
   xmlns="http://www.w3.org/2000/svg"
   xmlns:sodipodi="http://sodipodi.sourceforge.net/DTD/sodipodi-0.dtd"
   xmlns:inkscape="http://www.inkscape.org/namespaces/inkscape"
   width="210mm"
   height="297mm"
   viewBox="0 0 744.09448819 1052.3622047"
   id="svg2"
   version="1.1"
   inkscape:version="0.91 r13725"
   sodipodi:docname="pieChart.svg">
  <defs
     id="defs4" />
  <sodipodi:namedview
     id="base"
     pagecolor="#ffffff"
     bordercolor="#666666"
     borderopacity="1.0"
     inkscape:pageopacity="0.0"
     inkscape:pageshadow="2"
     inkscape:zoom="1.979899"
     inkscape:cx="344.90124"
     inkscape:cy="678.29043"
     inkscape:document-units="px"
     inkscape:current-layer="layer1"
     showgrid="false"
     inkscape:window-width="1920"
     inkscape:window-height="1017"
     inkscape:window-x="-8"
     inkscape:window-y="-8"
     inkscape:window-maximized="1" />
  <metadata
     id="metadata7">
    <rdf:RDF>
      <cc:Work
         rdf:about="">
        <dc:format>image/svg+xml</dc:format>
        <dc:type
           rdf:resource="http://purl.org/dc/dcmitype/StillImage" />
        <dc:title></dc:title>
      </cc:Work>
    </rdf:RDF>
  </metadata>
  <g
     inkscape:label="Layer 1"
     inkscape:groupmode="layer"
     id="layer1">
    <g
       id="g4228"
       transform="translate(0,-42.298421)">
      <path
         d="M 551.27777,401.37613 A 199.54547,199.54547 0 0 1 351.73231,600.9216 l -10e-6,-199.54547 z"
         sodipodi:end="1.5707963"
         sodipodi:start="0"
         sodipodi:ry="199.54547"
         sodipodi:rx="199.54547"
         sodipodi:cy="401.37613"
         sodipodi:cx="351.7323"
         sodipodi:type="arc"
         id="path4136"
         style="opacity:1;fill:#1a1a1a;fill-opacity:1;stroke:#000000;stroke-width:0.90905726;stroke-linecap:butt;stroke-miterlimit:4;stroke-dasharray:none;stroke-opacity:1" />
      <path
         transform="matrix(-0.38268343,-0.92387953,0.92387953,-0.38268343,0,0)"
         d="M -355.13896,172.14699 A 149.6591,149.6591 0 0 1 -398.9731,277.97195 L -504.79807,172.14699 Z"
         sodipodi:end="0.78539816"
         sodipodi:start="0"
         sodipodi:ry="149.6591"
         sodipodi:rx="149.6591"
         sodipodi:cy="172.14699"
         sodipodi:cx="-504.79807"
         sodipodi:type="arc"
         id="path4136-8"
         style="opacity:1;fill:#4d4d4d;fill-opacity:1;stroke:#000000;stroke-width:0.68179291;stroke-linecap:butt;stroke-miterlimit:4;stroke-dasharray:none;stroke-opacity:1" />
      <path
         transform="matrix(0,1,-1,0,0,0)"
         d="m 625.34917,-351.46521 a 224.48866,224.48865 0 0 1 -99.76945,186.65549 224.48866,224.48865 0 0 1 -210.62731,20.74498 l 85.90809,-207.40047 z"
         sodipodi:end="1.9634954"
         sodipodi:start="0"
         sodipodi:ry="224.48865"
         sodipodi:rx="224.48866"
         sodipodi:cy="-351.46521"
         sodipodi:cx="400.8605"
         sodipodi:type="arc"
         id="path4136-9"
         style="opacity:1;fill:#000000;fill-opacity:1;stroke:#000000;stroke-width:1.02268946;stroke-linecap:butt;stroke-miterlimit:4;stroke-dasharray:none;stroke-opacity:1" />
      <path
         transform="matrix(-0.92387953,-0.38268344,0.38268344,-0.92387953,0,0)"
         d="m -351.2672,-235.36191 a 127.18455,127.18455 0 0 1 -4.33371,32.91779 l -122.85084,-32.91779 z"
         sodipodi:end="0.26179939"
         sodipodi:start="0"
         sodipodi:ry="127.18455"
         sodipodi:rx="127.18455"
         sodipodi:cy="-235.36191"
         sodipodi:cx="-478.45175"
         sodipodi:type="arc"
         id="path4136-4"
         style="opacity:1;fill:#808080;fill-opacity:1;stroke:#000000;stroke-width:0.57940686;stroke-linecap:butt;stroke-miterlimit:4;stroke-dasharray:none;stroke-opacity:1" />
      <path
         transform="matrix(0.38268343,-0.92387953,0.92387953,0.38268343,0,0)"
         d="M -60.982574,478.22614 A 174.60229,174.60229 0 0 1 -168.76746,639.53762 l -66.81741,-161.31148 z"
         sodipodi:end="1.1780972"
         sodipodi:start="0"
         sodipodi:ry="174.60229"
         sodipodi:rx="174.60229"
         sodipodi:cy="478.22614"
         sodipodi:cx="-235.58487"
         sodipodi:type="arc"
         id="path4136-5"
         style="opacity:1;fill:#333333;fill-opacity:1;stroke:#000000;stroke-width:0.79542512;stroke-linecap:butt;stroke-miterlimit:4;stroke-dasharray:none;stroke-opacity:1" />
      <path
         transform="matrix(-0.79335334,-0.60876143,0.60876143,-0.79335334,0,0)"
         d="m -389.70348,-103.30157 a 132.48201,132.48201 0 0 1 -17.74922,66.241008 l -114.73279,-66.241008 z"
         sodipodi:end="0.52359878"
         sodipodi:start="0"
         sodipodi:ry="132.48201"
         sodipodi:rx="132.48201"
         sodipodi:cy="-103.30157"
         sodipodi:cx="-522.18549"
         sodipodi:type="arc"
         id="path4136-8-6"
         style="opacity:1;fill:#666666;fill-opacity:1;stroke:#000000;stroke-width:0.60354024;stroke-linecap:butt;stroke-miterlimit:4;stroke-dasharray:none;stroke-opacity:1" />
    </g>
    <circle
       style="opacity:1;fill:#ffffff;fill-opacity:1;stroke:#000000;stroke-width:0.79705799;stroke-linecap:butt;stroke-miterlimit:4;stroke-dasharray:none;stroke-opacity:1"
       id="path4226"
       cx="352.09799"
       cy="358.64722"
       r="49.601471" />
    <g
       id="g3"
       transform="matrix(0.8,0,0,0.8,312.09801,318.6472)"
       style="fill:#d40000">
      <g
         id="g5"
         style="fill:#d40000">
        <g
           id="g7"
           style="fill:#d40000">
          <path
             d="m 45.19,70.391 c -0.696,0.984 -1.355,1.469 -1.985,1.469 -0.42,0 -0.659,-0.246 -0.735,-0.734 -0.03,-0.101 -0.03,-0.484 -0.03,-1.22 l 0,-12.76 -3.138,0 0,13.704 c 0,1.225 0.104,2.051 0.277,2.576 0.313,0.878 1.011,1.289 2.023,1.289 1.154,0 2.34,-0.697 3.587,-2.129 l 0,1.891 3.143,0 0,-17.33 -3.142,0 0,13.244 z"
             id="path9"
             inkscape:connector-curvature="0"
             style="fill:#d40000" />
          <polygon
             points="27.897,54.492 31.591,54.492 31.591,74.477 35.083,74.477 35.083,54.492 38.845,54.492 38.845,51.218 27.897,51.218 "
             id="polygon11"
             style="fill:#d40000" />
          <path
             d="m 49.281,39.34 c 1.023,0 1.513,-0.81 1.513,-2.431 l 0,-7.368 c 0,-1.619 -0.49,-2.426 -1.513,-2.426 -1.024,0 -1.515,0.807 -1.515,2.426 l 0,7.368 c 0.001,1.62 0.491,2.431 1.515,2.431 z"
             id="path13"
             inkscape:connector-curvature="0"
             style="fill:#d40000" />
          <path
             d="m 57.434,56.935 c -1.154,0 -2.23,0.632 -3.243,1.88 l 0,-7.597 -3.141,0 0,23.259 3.141,0 0,-1.682 c 1.048,1.299 2.127,1.92 3.243,1.92 1.251,0 2.091,-0.658 2.511,-1.947 0.209,-0.735 0.316,-1.889 0.316,-3.492 l 0,-6.901 c 0,-1.64 -0.107,-2.786 -0.316,-3.483 -0.421,-1.299 -1.26,-1.957 -2.511,-1.957 z m -0.313,12.587 c 0,1.565 -0.461,2.337 -1.366,2.337 -0.516,0 -1.04,-0.246 -1.565,-0.771 l 0,-10.564 c 0.525,-0.517 1.048,-0.763 1.565,-0.763 0.906,0 1.366,0.802 1.366,2.365 l 0,7.396 z"
             id="path15"
             inkscape:connector-curvature="0"
             style="fill:#d40000" />
          <path
             d="m 67.435,56.935 c -1.602,0 -2.854,0.591 -3.76,1.778 -0.668,0.875 -0.971,2.229 -0.971,4.08 l 0,6.072 c 0,1.84 0.342,3.209 1.009,4.074 0.907,1.183 2.157,1.775 3.801,1.775 1.64,0 2.927,-0.621 3.797,-1.877 0.38,-0.559 0.628,-1.188 0.733,-1.883 0.028,-0.315 0.067,-1.013 0.067,-2.023 l 0,-0.46 -3.205,0 c 0,1.26 -0.039,1.957 -0.068,2.128 -0.179,0.839 -0.631,1.259 -1.403,1.259 -1.078,0 -1.602,-0.8 -1.602,-2.404 l 0,-3.072 6.279,0 0,-3.59 c 0,-1.852 -0.315,-3.205 -0.972,-4.08 -0.879,-1.187 -2.129,-1.777 -3.705,-1.777 z m 1.537,6.834 -3.139,0 0,-1.603 c 0,-1.602 0.524,-2.404 1.574,-2.404 1.039,0 1.565,0.802 1.565,2.404 l 0,1.603 z"
             id="path17"
             inkscape:connector-curvature="0"
             style="fill:#d40000" />
          <path
             d="m 79,14 -58,0 c -3.85,0 -7,3.15 -7,7 l 0,58 c 0,3.85 3.15,7 7,7 l 58,0 c 3.85,0 7,-3.15 7,-7 l 0,-58 c 0,-3.85 -3.15,-7 -7,-7 z m -22.42,10.47 3.163,0 0,12.892 c 0,0.746 0,1.133 0.039,1.235 0.07,0.492 0.318,0.743 0.744,0.743 0.634,0 1.301,-0.492 2.004,-1.486 l 0,-13.384 3.174,0 0,17.51 -3.174,0 0,-1.91 c -1.263,1.449 -2.468,2.153 -3.625,2.153 -1.022,0 -1.727,-0.415 -2.044,-1.303 -0.175,-0.529 -0.281,-1.368 -0.281,-2.604 l 0,-13.846 z m -11.987,5.708 c 0,-1.871 0.319,-3.24 0.994,-4.125 0.878,-1.196 2.114,-1.795 3.694,-1.795 1.59,0 2.824,0.599 3.703,1.795 0.664,0.885 0.985,2.254 0.985,4.125 l 0,6.135 c 0,1.86 -0.32,3.24 -0.985,4.119 -0.879,1.193 -2.112,1.792 -3.703,1.792 -1.581,0 -2.817,-0.599 -3.694,-1.792 -0.675,-0.879 -0.994,-2.259 -0.994,-4.119 l 0,-6.135 z m -8.486,-11.696 2.499,9.227 2.399,-9.227 3.558,0 -4.232,13.982 0,9.516 -3.52,0 0,-9.516 c -0.318,-1.688 -1.022,-4.158 -2.15,-7.435 -0.742,-2.18 -1.515,-4.37 -2.256,-6.547 l 3.702,0 z m 38.966,57.036 c -0.634,2.763 -2.896,4.801 -5.616,5.104 -6.444,0.72 -12.965,0.724 -19.457,0.72 -6.493,0.004 -13.014,0 -19.457,-0.72 -2.721,-0.304 -4.979,-2.342 -5.614,-5.104 -0.905,-3.936 -0.905,-8.232 -0.905,-12.282 0,-4.054 0.01,-8.347 0.916,-12.284 0.634,-2.762 2.893,-4.799 5.614,-5.103 6.443,-0.722 12.964,-0.724 19.457,-0.722 6.492,-0.002 13.013,0 19.457,0.722 2.719,0.304 4.98,2.341 5.615,5.103 0.905,3.938 0.9,8.23 0.9,12.284 10e-4,4.05 -0.004,8.346 -0.91,12.282 z"
             id="path19"
             inkscape:connector-curvature="0"
             style="fill:#d40000" />
        </g>
      </g>
    </g>
  </g>
</svg>
