<?xml version="1.0" encoding="UTF-8" standalone="no"?>
<!-- Created with Inkscape (http://www.inkscape.org/) -->
<svg id="svg2" xmlns:rdf="http://www.w3.org/1999/02/22-rdf-syntax-ns#" xmlns="http://www.w3.org/2000/svg" height="109.23mm" viewBox="0 0 425.27224 387.03181" width="120.02mm" version="1.1" xmlns:cc="http://creativecommons.org/ns#" xmlns:dc="http://purl.org/dc/elements/1.1/">
 <metadata id="metadata7">
  <rdf:RDF>
   <cc:Work rdf:about="">
    <dc:format>image/svg+xml</dc:format>
    <dc:type rdf:resource="http://purl.org/dc/dcmitype/StillImage"/>
    <dc:title/>
   </cc:Work>
  </rdf:RDF>
 </metadata>
 <g stroke="#000">
  <path id="path4136" d="m0.45455 224.48a199.55 199.55 0 0 1 199.56 -199.54l-0.00001 199.55z" stroke-width=".90906" fill="#1a1a1a"/>
  <path id="path4136-8" d="m256.78 363.63a149.66 149.66 0 0 1 -114.54 0.002l57.266-138.27z" stroke-width=".68179" fill="#4d4d4d"/>
  <path id="path4136-9" stroke-width="1.0227" d="m200.27 0.51086a224.49 224.49 0 0 1 186.66 99.769 224.49 224.49 0 0 1 20.74 210.63l-207.4-85.91z"/>
  <path id="path4136-5" d="m133.24 386.51a174.6 174.6 0 0 1 -107.78 -161.31l174.6-0.00078z" stroke-width=".79543" fill="#333"/>
  <circle id="path4226" stroke-width=".79706" transform="scale(-1)" cy="-224.92" cx="-199.64" r="49.601" fill="#fff"/>
 </g>
 <g id="White_1_" fill="#04a" transform="matrix(.80001 0 0 .80001 159.64 184.92)">
  <path id="path6460" fill="#04a" d="m82.026 14h-64.052c-2.195 0-3.974 1.779-3.974 3.974v64.053c0 2.194 1.779 3.973 3.974 3.973h34.483v-27.882h-9.383v-10.866h9.383v-8.014c0-9.3 5.68-14.363 13.976-14.363 3.974 0 7.389 0.295 8.385 0.428v9.719l-5.754 0.003c-4.512 0-5.385 2.144-5.385 5.29v6.938h10.76l-1.401 10.866h-9.359v27.881h18.348c2.194 0 3.973-1.779 3.973-3.974v-64.052c0-2.195-1.779-3.974-3.974-3.974z"/>
 </g>
</svg>
